<svg width="148" height="26" viewBox="0 0 148 26" fill="none" xmlns="http://www.w3.org/2000/svg">
<path d="M36.0068 0.611877H15.1632C13.3076 0.620968 11.5082 1.25043 10.0509 2.40026C8.59364 3.55009 7.562 5.15436 7.11987 6.95822H31.6558L36.0068 0.611877Z" fill="white"/>
<path d="M92.5178 0.611877H71.6107C69.7551 0.620968 67.9557 1.25043 66.4984 2.40026C65.0411 3.55009 64.0094 5.15436 63.5673 6.95822H90.2772L92.5178 0.611877Z" fill="white"/>
<path d="M122.021 0.611877H95.3703L93.1298 6.95667H119.781L122.021 0.611877Z" fill="white"/>
<path d="M29.4385 18.162C29.4917 17.2754 29.4397 16.3857 29.2836 15.5115C29.2567 15.3533 29.2262 15.1982 29.1921 15.0462C28.9597 13.8823 28.4445 12.7936 27.6923 11.8761C27.4909 11.6404 27.2718 11.4206 27.0368 11.2185C26.555 10.8094 26.0163 10.4724 25.4378 10.2182C24.8772 9.97257 24.2917 9.78849 23.6915 9.66918C23.1172 9.55435 22.535 9.48332 21.9499 9.4567C21.7164 9.44533 21.4825 9.43964 21.248 9.43964H6.99277C6.99277 16.8344 14.4659 16.8437 14.4659 16.8437H20.1664C20.3292 16.8437 20.4904 16.8758 20.6408 16.9382C20.7912 17.0005 20.9278 17.0919 21.043 17.2071C21.1581 17.3223 21.2494 17.4591 21.3117 17.6096C21.374 17.7602 21.406 17.9215 21.406 18.0844C21.406 18.2474 21.374 18.4087 21.3117 18.5592C21.2494 18.7098 21.1581 18.8466 21.043 18.9618C20.9278 19.077 20.7912 19.1684 20.6408 19.2307C20.4904 19.2931 20.3292 19.3252 20.1664 19.3252H2.59845L0.35791 25.6715H21.3642C23.2079 25.6711 24.9965 25.0424 26.4356 23.8889C27.8748 22.7354 28.8786 21.1259 29.282 19.3252C29.3611 18.9415 29.4134 18.5529 29.4385 18.162Z" fill="white"/>
<path d="M47.617 9.43188H39.3195L28.0842 25.839H44.7659L50.0884 19.3128H40.8922L47.617 9.43188Z" fill="white"/>
<path d="M56.5637 6.95667L55.4295 0.611877H45.3579L41.0193 6.95667H56.5637Z" fill="white"/>
<path d="M80.3574 9.43195L74.2835 16.8376H78.4423L77.6009 19.2027H73.7412C68.4838 19.2027 69.6862 14.4631 71.6556 9.95771C71.8105 9.61186 71.8772 9.43195 71.8772 9.43195H62.6779C57.092 24.5921 66.4881 25.8391 75.647 25.8391H83.5339L89.3289 9.43195H80.3574Z" fill="white"/>
<path d="M48.7094 9.43188L51.5728 25.839H59.94L57.0084 9.43188H48.7094Z" fill="white"/>
<path d="M97.958 19.3129L98.8319 16.8314H107.763L113.806 9.42578H104.481L99.1619 15.9102L101.452 9.42733H92.2544L86.4593 25.8345H113.11L115.416 19.3082L97.958 19.3129Z" fill="white"/>
<path d="M74.285 16.836L80.359 9.43042H89.3367L83.2937 16.836H74.285Z" fill="#D90915"/>
<path d="M139.803 0.611877H124.494L122.254 6.95822H147.743C146.364 0.670817 139.803 0.611877 139.803 0.611877Z" fill="white"/>
<path d="M148 9.43198H133.7L128.38 15.9148H128.365L130.706 9.42578H121.381L115.418 25.8329H124.786L127.361 18.6987L133.181 25.8329H143.864L136.043 16.8376H139.368C139.368 16.8376 148 16.8376 148 9.43198Z" fill="white"/>
</svg>
