<svg width="24" height="29" viewBox="0 0 24 29" fill="none" xmlns="http://www.w3.org/2000/svg">
<path d="M13.3841 5.8216C13.3105 5.8216 13.2377 5.8071 13.1698 5.77893C13.1018 5.75077 13.0401 5.70948 12.9881 5.65743C12.9361 5.60538 12.8948 5.54359 12.8667 5.47558C12.8386 5.40758 12.8241 5.33469 12.8241 5.26108V3.37734C12.8241 3.07989 12.706 2.79462 12.4959 2.58429C12.2858 2.37396 12.0007 2.2558 11.7036 2.2558C11.4064 2.2558 11.1214 2.37396 10.9113 2.58429C10.7011 2.79462 10.5831 3.07989 10.5831 3.37734V5.26108C10.5831 5.40974 10.5241 5.55231 10.4191 5.65743C10.314 5.76255 10.1716 5.8216 10.0231 5.8216C9.87455 5.8216 9.73211 5.76255 9.62709 5.65743C9.52207 5.55231 9.46307 5.40974 9.46307 5.26108V3.37734C9.47546 2.79077 9.71695 2.23241 10.1358 1.82196C10.5546 1.41151 11.1174 1.18164 11.7036 1.18164C12.2897 1.18164 12.8525 1.41151 13.2714 1.82196C13.6902 2.23241 13.9317 2.79077 13.9441 3.37734V5.26108C13.9441 5.33469 13.9296 5.40758 13.9014 5.47558C13.8733 5.54359 13.8321 5.60538 13.7801 5.65743C13.7281 5.70948 13.6663 5.75077 13.5984 5.77893C13.5304 5.8071 13.4576 5.8216 13.3841 5.8216Z" fill="white" stroke="white" stroke-width="0.6"/>
<path d="M11.703 28.0472C10.6635 28.0459 9.66698 27.632 8.93194 26.8963C8.1969 26.1605 7.78337 25.1631 7.78204 24.1226C7.78204 23.9739 7.84104 23.8314 7.94606 23.7262C8.05108 23.6211 8.19352 23.5621 8.34204 23.5621C8.49057 23.5621 8.633 23.6211 8.73802 23.7262C8.84304 23.8314 8.90204 23.9739 8.90204 24.1226C8.90204 24.8659 9.19704 25.5787 9.72214 26.1043C10.2472 26.6299 10.9594 26.9252 11.702 26.9252C12.4446 26.9252 13.1568 26.6299 13.6819 26.1043C14.207 25.5787 14.502 24.8659 14.502 24.1226C14.502 23.9739 14.561 23.8314 14.6661 23.7262C14.7711 23.6211 14.9135 23.5621 15.062 23.5621C15.2106 23.5621 15.353 23.6211 15.458 23.7262C15.563 23.8314 15.622 23.9739 15.622 24.1226C15.6207 25.1627 15.2075 26.1599 14.4729 26.8956C13.7382 27.6312 12.7422 28.0454 11.703 28.0472Z" fill="white" stroke="white" stroke-width="0.6"/>
<path d="M21.227 24.684H2.18105C1.83759 24.6838 1.50244 24.5783 1.22071 24.3816C0.938987 24.185 0.724197 23.9067 0.605249 23.5842C0.486301 23.2617 0.468904 22.9105 0.555399 22.5778C0.641895 22.2451 0.828131 21.9469 1.08905 21.7233C1.95814 20.9911 2.65669 20.0774 3.13572 19.0463C3.61474 18.0153 3.86265 16.8919 3.86205 15.7548V12.3516C3.85033 11.3133 4.04453 10.283 4.4334 9.32035C4.82227 8.35769 5.39808 7.48181 6.12749 6.74344C6.85689 6.00507 7.7254 5.41887 8.68272 5.0188C9.64003 4.61872 10.6671 4.41272 11.7045 4.41272C12.742 4.41272 13.7691 4.61872 14.7264 5.0188C15.6837 5.41887 16.5522 6.00507 17.2816 6.74344C18.011 7.48181 18.5868 8.35769 18.9757 9.32035C19.3646 10.283 19.5588 11.3133 19.547 12.3516V15.7548C19.546 16.8896 19.7927 18.011 20.27 19.0404C20.7473 20.0698 21.4435 20.9824 22.31 21.7143C22.5734 21.9366 22.7622 22.2346 22.8508 22.5679C22.9394 22.9012 22.9235 23.2536 22.8053 23.5776C22.6871 23.9015 22.4724 24.1813 22.1901 24.379C21.9078 24.5768 21.5716 24.6839 21.227 24.684ZM11.7 5.6194C9.91783 5.62125 8.20914 6.33071 6.94892 7.5921C5.6887 8.85348 4.9799 10.5638 4.97805 12.3476V15.7508C4.97929 17.049 4.69702 18.3318 4.151 19.5094C3.60498 20.687 2.8084 21.7309 1.81705 22.5681C1.729 22.642 1.66582 22.7413 1.63607 22.8524C1.60633 22.9635 1.61146 23.0811 1.65077 23.1892C1.69008 23.2973 1.76167 23.3907 1.85582 23.4567C1.94997 23.5226 2.06212 23.558 2.17705 23.558H21.227C21.3416 23.5581 21.4535 23.523 21.5475 23.4575C21.6415 23.392 21.7132 23.2992 21.7529 23.1916C21.7926 23.084 21.7983 22.9669 21.7694 22.8559C21.7405 22.7449 21.6782 22.6455 21.591 22.5711C20.599 21.7336 19.8017 20.6893 19.255 19.5113C18.7083 18.3332 18.4254 17.0497 18.426 15.7508V12.3476C18.4242 10.5631 17.7148 8.85219 16.4538 7.59068C15.1927 6.32918 13.483 5.62019 11.7 5.6194Z" fill="white" stroke="white" stroke-width="0.6"/>
</svg>
