<svg width="27" height="24" viewBox="0 0 27 24" fill="none" xmlns="http://www.w3.org/2000/svg">
<path d="M13.437 0.734511C11.6725 0.732003 9.92489 1.07849 8.29458 1.75406C6.66427 2.42964 5.18338 3.42099 3.937 4.67115C2.68775 5.91788 1.69686 7.39934 1.02123 9.03045C0.345602 10.6616 -0.00144947 12.4102 4.54998e-06 14.176C4.54998e-06 14.176 4.54998e-06 14.184 4.54998e-06 14.188C4.54998e-06 14.192 4.54998e-06 14.196 4.54998e-06 14.199C-0.00231987 17.3193 1.08385 20.3426 3.071 22.7469C3.17601 22.8742 3.30781 22.9767 3.457 23.0472C3.60618 23.1176 3.76906 23.1542 3.934 23.1543H22.934C23.0989 23.1542 23.2618 23.1176 23.411 23.0472C23.5602 22.9767 23.692 22.8742 23.797 22.7469C25.42 20.7799 26.4506 18.3914 26.7685 15.8603C27.0864 13.3291 26.6784 10.7596 25.5923 8.45175C24.5061 6.1439 22.7865 4.19289 20.6342 2.82643C18.4819 1.45996 15.9857 0.734431 13.437 0.734511ZM22.395 20.9072H4.478C3.25073 19.2745 2.49585 17.3354 2.296 15.302H5.6C5.89112 15.2933 6.1674 15.1714 6.37025 14.9622C6.57309 14.753 6.68654 14.473 6.68654 14.1815C6.68654 13.8899 6.57309 13.6099 6.37025 13.4007C6.1674 13.1915 5.89112 13.0696 5.6 13.0609H2.3C2.51711 10.8698 3.37723 8.79207 4.772 7.08939L5.524 7.84209C5.73867 8.02479 6.01425 8.1198 6.29578 8.10815C6.57732 8.09651 6.84413 7.97906 7.043 7.77925C7.24187 7.57944 7.35818 7.31195 7.36875 7.0301C7.37931 6.74826 7.28335 6.47279 7.1 6.25862L6.348 5.50593C8.0491 4.10986 10.1249 3.24894 12.314 3.03164V6.33469C12.3095 6.48466 12.3352 6.63401 12.3894 6.77387C12.4437 6.91374 12.5254 7.04129 12.6298 7.14895C12.7342 7.25662 12.8591 7.34221 12.9972 7.40066C13.1352 7.45911 13.2836 7.48923 13.4335 7.48923C13.5834 7.48923 13.7318 7.45911 13.8698 7.40066C14.0079 7.34221 14.1328 7.25662 14.2372 7.14895C14.3416 7.04129 14.4233 6.91374 14.4776 6.77387C14.5318 6.63401 14.5575 6.48466 14.553 6.33469V3.03164C16.7421 3.249 18.8179 4.10991 20.519 5.50593L19.767 6.25862C19.6572 6.36131 19.5691 6.48507 19.5081 6.62253C19.447 6.76 19.4142 6.90835 19.4117 7.05876C19.4091 7.20917 19.4368 7.35856 19.4932 7.49802C19.5495 7.63749 19.6333 7.76418 19.7396 7.87055C19.8458 7.97693 19.9724 8.0608 20.1117 8.11718C20.2511 8.17356 20.4003 8.2013 20.5506 8.19874C20.7009 8.19617 20.8491 8.16336 20.9864 8.10226C21.1238 8.04116 21.2474 7.95302 21.35 7.84309L22.102 7.09039C23.4967 8.7931 24.3568 10.8708 24.574 13.0619H21.274C20.9829 13.0706 20.7066 13.1925 20.5038 13.4017C20.3009 13.6109 20.1875 13.8909 20.1875 14.1825C20.1875 14.474 20.3009 14.754 20.5038 14.9632C20.7066 15.1724 20.9829 15.2943 21.274 15.303H24.574C24.3745 17.3358 23.6204 19.2746 22.394 20.9072H22.395Z" fill="#65717C"/>
<path d="M16.795 10.0842L10.462 13.2551L13.629 16.424L16.795 10.0842Z" fill="#65717C"/>
<path d="M16.79 17.5451H10.072C9.92215 17.5406 9.77295 17.5662 9.63321 17.6205C9.49347 17.6748 9.36605 17.7567 9.25848 17.8611C9.15092 17.9656 9.0654 18.0907 9.007 18.2289C8.94861 18.3671 8.91852 18.5156 8.91852 18.6656C8.91852 18.8156 8.94861 18.9642 9.007 19.1023C9.0654 19.2405 9.15092 19.3656 9.25848 19.4701C9.36605 19.5746 9.49347 19.6564 9.63321 19.7107C9.77295 19.765 9.92215 19.7906 10.072 19.7861H16.79C17.0811 19.7774 17.3574 19.6555 17.5602 19.4464C17.7631 19.2372 17.8765 18.9571 17.8765 18.6656C17.8765 18.3741 17.7631 18.094 17.5602 17.8848C17.3574 17.6757 17.0811 17.5538 16.79 17.5451Z" fill="#65717C"/>
</svg>
