<svg width="145" height="17" viewBox="0 0 145 17" fill="none" xmlns="http://www.w3.org/2000/svg">
<path d="M0.00402832 15.9017V0.314235H4.78603C6.06962 0.292739 7.33596 0.612208 8.45603 1.24009C9.53406 1.85613 10.4115 2.77055 10.983 3.87353C11.6027 5.07163 11.9147 6.40522 11.891 7.75413V8.47179C11.916 9.81384 11.6096 11.1413 10.999 12.3364C10.4313 13.4356 9.55738 14.3465 8.48303 14.9588C7.36531 15.5888 6.10174 15.9137 4.81903 15.9007L0.00402832 15.9017ZM3.20403 2.91564V13.3253H4.75403C5.29582 13.3587 5.83792 13.2648 6.33696 13.051C6.83601 12.8372 7.27815 12.5096 7.62803 12.0941C8.35568 11.0662 8.7135 9.82168 8.64303 8.56388V7.73911C8.73247 6.46124 8.3859 5.19081 7.66003 4.13577C7.30966 3.72163 6.86713 3.39551 6.36799 3.18361C5.86886 2.97171 5.32703 2.87993 4.78603 2.91564H3.20403ZM19.978 10.1954H17.424V15.9007H14.224V0.314235H20.004C21.5214 0.216457 23.0252 0.651883 24.256 1.54538C24.7579 1.96969 25.1545 2.50473 25.4148 3.10844C25.675 3.71215 25.7919 4.36806 25.756 5.0246C25.7901 5.95965 25.5506 6.88431 25.067 7.68506C24.5514 8.44408 23.8253 9.03557 22.978 9.38664L26.343 15.7565V15.9067H22.894L19.978 10.1954ZM17.425 7.59298H20.01C20.6893 7.63625 21.359 7.41577 21.88 6.97741C22.1055 6.75768 22.2813 6.49208 22.3955 6.19854C22.5098 5.905 22.5597 5.59035 22.542 5.27583C22.5597 4.95949 22.5135 4.64283 22.4061 4.34479C22.2987 4.04674 22.1324 3.77344 21.917 3.54122C21.6557 3.31494 21.3519 3.14307 21.0235 3.03566C20.695 2.92825 20.3484 2.88745 20.004 2.91564H17.424L17.425 7.59298ZM40.96 8.45978C40.99 9.8485 40.7127 11.2267 40.148 12.4955C39.6537 13.5968 38.8451 14.5273 37.824 15.17C36.7754 15.7851 35.5824 16.1102 34.367 16.1121C33.1516 16.1141 31.9576 15.7927 30.907 15.181C29.8807 14.5432 29.0637 13.6182 28.557 12.5205C27.9813 11.2751 27.6928 9.916 27.713 8.54386V7.77314C27.684 6.37769 27.9669 4.99338 28.541 3.72139C29.0403 2.61514 29.8542 1.68071 30.881 1.0349C31.9297 0.421445 33.1224 0.0981445 34.337 0.0981445C35.5516 0.0981445 36.7444 0.421445 37.793 1.0349C38.8199 1.68071 39.6338 2.61514 40.133 3.72139C40.7064 4.98974 40.9892 6.37029 40.961 7.76213L40.96 8.45978ZM37.712 7.75312C37.7962 6.45178 37.4912 5.15485 36.836 4.02767C36.5501 3.63434 36.1757 3.31399 35.743 3.09261C35.3103 2.87123 34.8315 2.75504 34.3456 2.75348C33.8596 2.75192 33.3802 2.86503 32.946 3.08363C32.5119 3.30223 32.1354 3.62017 31.847 4.01166C31.1911 5.12497 30.8823 6.40895 30.96 7.69907V8.46378C30.8852 9.75733 31.1897 11.0446 31.836 12.1672C32.1154 12.5697 32.4871 12.8993 32.9199 13.1284C33.3527 13.3576 33.834 13.4796 34.3236 13.4843C34.8132 13.489 35.2968 13.3763 35.7339 13.1555C36.1711 12.9347 36.549 12.6123 36.836 12.2153C37.4847 11.0935 37.7893 9.80559 37.712 8.51183V7.75312ZM55.937 15.8997H52.737L46.493 5.64617V15.9017H43.293V0.314235H46.493L52.743 10.5908V0.314235H55.937V15.8997ZM68.094 9.14641H61.94V13.3213H69.162V15.9017H58.735V0.314235H69.141V2.91665H61.941V6.63108H68.094V9.14641ZM85.849 9.53177H79.695V15.9017H76.495V0.314235H86.618V2.91665H79.695V6.94137H85.848L85.849 9.53177ZM91.682 13.3213H98.487V15.9017H88.477V0.314235H91.677L91.682 13.3213ZM102.704 7.33674L105.941 0.314235H109.441L104.335 10.2484V15.9007H101.077V10.2494L95.976 0.314235H99.491L102.704 7.33674ZM114.274 15.9007H111.074V0.314235H114.274V15.9007ZM129.893 15.9007H126.693L120.454 5.64517V15.9017H117.254V0.314235H120.454L126.704 10.5908V0.314235H129.898L129.893 15.9007ZM145.004 13.9318C144.347 14.6781 143.503 15.2345 142.558 15.5433C141.434 15.9366 140.249 16.1303 139.058 16.1159C137.82 16.1433 136.597 15.8385 135.517 15.2331C134.494 14.635 133.675 13.7415 133.167 12.6697C132.59 11.4339 132.299 10.0832 132.318 8.71902V7.66304C132.285 6.27514 132.552 4.89649 133.103 3.6223C133.576 2.54181 134.366 1.63073 135.368 1.00988C136.579 0.351406 137.948 0.0418063 139.324 0.11549C140.699 0.189174 142.028 0.643256 143.161 1.42727C144.253 2.41854 144.914 3.79796 145.004 5.27083H141.885C141.816 4.52529 141.48 3.82974 140.94 3.31201C140.365 2.86958 139.65 2.64927 138.926 2.69144C138.441 2.66638 137.957 2.76641 137.521 2.98196C137.085 3.19751 136.712 3.52138 136.437 3.92258C135.793 5.03053 135.492 6.30473 135.572 7.58397V8.57989C135.483 9.88165 135.808 11.1783 136.501 12.2833C136.817 12.7 137.231 13.0323 137.706 13.2507C138.182 13.4691 138.703 13.5669 139.225 13.5355C140.151 13.6261 141.076 13.3493 141.8 12.7648V10.0773H138.884V7.71209H145.004V13.9318Z" fill="white"/>
</svg>
