<svg width="27" height="27" viewBox="0 0 27 27" fill="none" xmlns="http://www.w3.org/2000/svg">
<path d="M2.25 9.78313C2.58152 9.78313 2.89946 9.65132 3.13388 9.41668C3.3683 9.18204 3.5 8.8638 3.5 8.53198V4.7785C3.5 4.44667 3.6317 4.12844 3.86612 3.8938C4.10054 3.65916 4.41848 3.52734 4.75 3.52734H8.5C8.83152 3.52734 9.14946 3.39552 9.38388 3.16089C9.6183 2.92625 9.75 2.60801 9.75 2.27618C9.75 1.94436 9.6183 1.62612 9.38388 1.39148C9.14946 1.15684 8.83152 1.02502 8.5 1.02502H4.75C3.75544 1.02502 2.80161 1.42048 2.09835 2.12439C1.39509 2.82831 1 3.78302 1 4.7785V8.53198C1 8.8638 1.1317 9.18204 1.36612 9.41668C1.60054 9.65132 1.91848 9.78313 2.25 9.78313ZM8.5 23.5459H4.75C4.41848 23.5459 4.10054 23.4141 3.86612 23.1794C3.6317 22.9448 3.5 22.6265 3.5 22.2947V18.5412C3.5 18.2094 3.3683 17.8912 3.13388 17.6565C2.89946 17.4219 2.58152 17.2901 2.25 17.2901C1.91848 17.2901 1.60054 17.4219 1.36612 17.6565C1.1317 17.8912 1 18.2094 1 18.5412V22.2947C1 23.2902 1.39509 24.2449 2.09835 24.9488C2.80161 25.6527 3.75544 26.0482 4.75 26.0482H8.5C8.83152 26.0482 9.14946 25.9164 9.38388 25.6817C9.6183 25.4471 9.75 25.1289 9.75 24.797C9.75 24.4652 9.6183 24.147 9.38388 23.9123C9.14946 23.6777 8.83152 23.5459 8.5 23.5459ZM13.5 8.53198C12.5111 8.53198 11.5444 8.82549 10.7221 9.37541C9.8999 9.92533 9.25904 10.7069 8.8806 11.6214C8.50216 12.5359 8.40315 13.5422 8.59607 14.513C8.789 15.4838 9.2652 16.3755 9.96447 17.0754C10.6637 17.7753 11.5546 18.252 12.5245 18.4451C13.4945 18.6382 14.4998 18.5391 15.4134 18.1603C16.327 17.7815 17.1079 17.14 17.6573 16.317C18.2068 15.494 18.5 14.5264 18.5 13.5366C18.5 12.2093 17.9732 10.9363 17.0355 9.9978C16.0979 9.05925 14.8261 8.53198 13.5 8.53198ZM13.5 16.0389C13.0055 16.0389 12.5222 15.8922 12.1111 15.6172C11.7 15.3423 11.3795 14.9514 11.1903 14.4942C11.0011 14.037 10.9516 13.5338 11.048 13.0484C11.1445 12.563 11.3826 12.1172 11.7322 11.7672C12.0819 11.4172 12.5273 11.1789 13.0123 11.0824C13.4972 10.9858 13.9999 11.0354 14.4567 11.2248C14.9135 11.4142 15.304 11.7349 15.5787 12.1464C15.8534 12.5579 16 13.0417 16 13.5366C16 14.2003 15.7366 14.8367 15.2678 15.306C14.7989 15.7753 14.163 16.0389 13.5 16.0389ZM22.25 1.02502H18.5C18.1685 1.02502 17.8505 1.15684 17.6161 1.39148C17.3817 1.62612 17.25 1.94436 17.25 2.27618C17.25 2.60801 17.3817 2.92625 17.6161 3.16089C17.8505 3.39552 18.1685 3.52734 18.5 3.52734H22.25C22.5815 3.52734 22.8995 3.65916 23.1339 3.8938C23.3683 4.12844 23.5 4.44667 23.5 4.7785V8.53198C23.5 8.8638 23.6317 9.18204 23.8661 9.41668C24.1005 9.65132 24.4185 9.78313 24.75 9.78313C25.0815 9.78313 25.3995 9.65132 25.6339 9.41668C25.8683 9.18204 26 8.8638 26 8.53198V4.7785C26 3.78302 25.6049 2.82831 24.9017 2.12439C24.1984 1.42048 23.2446 1.02502 22.25 1.02502ZM24.75 17.2901C24.4185 17.2901 24.1005 17.4219 23.8661 17.6565C23.6317 17.8912 23.5 18.2094 23.5 18.5412V22.2947C23.5 22.6265 23.3683 22.9448 23.1339 23.1794C22.8995 23.4141 22.5815 23.5459 22.25 23.5459H18.5C18.1685 23.5459 17.8505 23.6777 17.6161 23.9123C17.3817 24.147 17.25 24.4652 17.25 24.797C17.25 25.1289 17.3817 25.4471 17.6161 25.6817C17.8505 25.9164 18.1685 26.0482 18.5 26.0482H22.25C23.2446 26.0482 24.1984 25.6527 24.9017 24.9488C25.6049 24.2449 26 23.2902 26 22.2947V18.5412C26 18.2094 25.8683 17.8912 25.6339 17.6565C25.3995 17.4219 25.0815 17.2901 24.75 17.2901Z" fill="white" stroke="#1F2327" stroke-width="0.6"/>
</svg>
