<svg width="70" height="72" viewBox="0 0 70 72" fill="none" xmlns="http://www.w3.org/2000/svg">
<path d="M25.1045 64.9492C38.6229 67.7608 51.8588 59.0711 54.6678 45.5402C57.4768 32.0094 48.7952 18.7611 35.2768 15.9495C21.7585 13.1379 8.52255 21.8276 5.71353 35.3585C2.90452 48.8894 11.5862 62.1376 25.1045 64.9492Z" fill="#24FF00"/>
<path d="M30.1994 41.4163C30.3427 41.4461 30.4916 41.4327 30.6273 41.3778C30.763 41.3229 30.8793 41.229 30.9617 41.1079C31.044 40.9868 31.0887 40.8439 31.0899 40.6974C31.0912 40.551 31.049 40.4074 30.9687 40.2849C30.8884 40.1624 30.7737 40.0665 30.6389 40.0093C30.5042 39.9521 30.3555 39.9361 30.2118 39.9635C30.068 39.9908 29.9355 40.0602 29.8312 40.1629C29.7268 40.2656 29.6552 40.397 29.6254 40.5404C29.5855 40.7328 29.6235 40.9331 29.7312 41.0974C29.8388 41.2616 30.0072 41.3764 30.1994 41.4163Z" fill="white"/>
<path d="M26.3753 31.9262C26.2688 31.7636 26.1313 31.6237 25.9707 31.5143C25.8101 31.4049 25.6296 31.3282 25.4394 31.2886C25.2492 31.2491 25.053 31.2474 24.8622 31.2837C24.6714 31.32 24.4895 31.3936 24.3271 31.5002C24.1647 31.6069 24.0248 31.7445 23.9155 31.9052C23.8062 32.066 23.7296 32.2467 23.6901 32.4371C23.6506 32.6274 23.6489 32.8237 23.6852 33.0148C23.7214 33.2058 23.7949 33.3878 23.9015 33.5504L25.8685 36.5521C26.5137 37.537 26.7416 38.7382 26.5022 39.8914C26.2628 41.0445 25.5757 42.0553 24.5919 42.7015L21.593 44.6704C21.4305 44.777 21.2907 44.9146 21.1814 45.0754C21.0721 45.2361 20.9955 45.4168 20.956 45.6072C20.9164 45.7976 20.9148 45.9939 20.951 46.1849C20.9873 46.3759 21.0608 46.5579 21.1674 46.7205C21.2739 46.8831 21.4114 47.0231 21.572 47.1325C21.7326 47.2419 21.9131 47.3186 22.1033 47.3581C22.2935 47.3977 22.4897 47.3993 22.6805 47.363C22.8713 47.3267 23.0532 47.2532 23.2156 47.1465L26.2145 45.1777C27.1986 44.5319 28.3986 44.3037 29.5507 44.5433C30.7028 44.783 31.7127 45.4708 32.3583 46.4555L34.3253 49.4572C34.5405 49.7855 34.8772 50.0149 35.2613 50.0948C35.6454 50.1747 36.0455 50.0985 36.3735 49.8832C36.7016 49.6678 36.9307 49.3308 37.0106 48.9463C37.0904 48.5618 37.0143 48.1614 36.7992 47.833L34.8321 44.8313C34.187 43.8463 33.959 42.6452 34.1984 41.492C34.4378 40.3389 35.1249 39.3281 36.1088 38.6819L39.1077 36.713C39.2701 36.6064 39.41 36.4688 39.5193 36.308C39.6286 36.1473 39.7052 35.9666 39.7447 35.7762C39.7842 35.5858 39.7859 35.3895 39.7496 35.1985C39.7133 35.0075 39.6398 34.8255 39.5333 34.6629C39.4267 34.5003 39.2892 34.3603 39.1286 34.2509C38.968 34.1415 38.7875 34.0648 38.5973 34.0253C38.4071 33.9857 38.211 33.9841 38.0201 34.0204C37.8293 34.0567 37.6475 34.1302 37.485 34.2369L34.4861 36.2057C33.5021 36.8515 32.302 37.0797 31.1499 36.84C29.9978 36.6004 28.9879 35.9126 28.3424 34.9279L26.3753 31.9262ZM30.8012 38.5175C31.2309 38.6069 31.6244 38.8218 31.9321 39.135C32.2398 39.4483 32.4478 39.8458 32.5297 40.2774C32.6116 40.7089 32.5639 41.1551 32.3925 41.5595C32.2211 41.9639 31.9337 42.3084 31.5668 42.5493C31.1998 42.7902 30.7697 42.9168 30.3308 42.9131C29.8919 42.9093 29.4641 42.7754 29.1012 42.5282C28.7384 42.2811 28.457 41.9318 28.2925 41.5245C28.128 41.1173 28.0878 40.6703 28.1771 40.2402C28.2974 39.6636 28.6414 39.1583 29.1336 38.8353C29.6258 38.5123 30.2249 38.3979 30.8012 38.5175Z" fill="white"/>
<path d="M24.0281 48.3837C23.3721 48.8145 22.5721 48.9668 21.8039 48.8071C21.0357 48.6474 20.3624 48.1889 19.932 47.5323C19.5016 46.8757 19.3495 46.0749 19.509 45.306C19.6685 44.5371 20.1267 43.8632 20.7826 43.4324L23.4788 41.6623C22.4579 41.253 21.3332 41.1804 20.2682 41.4551C19.2032 41.7297 18.2535 42.3372 17.5572 43.1892C16.8609 44.0412 16.4543 45.0934 16.3966 46.1926C16.3388 47.2919 16.6329 48.3809 17.2361 49.3014C17.8393 50.2218 18.7201 50.9256 19.7504 51.3106C20.7807 51.6955 21.9069 51.7413 22.965 51.4415C24.0232 51.1417 24.9582 50.5119 25.6342 49.6435C26.3101 48.7752 26.6916 47.7137 26.7233 46.6134L24.0281 48.3837Z" fill="white"/>
<path d="M23.523 36.9527C23.823 37.0154 24.1279 37.0514 24.4342 37.0604L22.6655 34.3627C22.2352 33.7061 22.083 32.9053 22.2425 32.1364C22.402 31.3675 22.8602 30.6936 23.5162 30.2628C24.1722 29.832 24.9722 29.6797 25.7404 29.8394C26.5086 29.9991 27.1819 30.4576 27.6123 31.1142L29.3807 33.8129C29.7776 32.8257 29.8612 31.7401 29.6202 30.7036C29.3792 29.6672 28.8253 28.7301 28.0338 28.0197C27.2422 27.3092 26.2514 26.8599 25.1958 26.7327C24.1403 26.6055 23.0712 26.8066 22.1338 27.3087C21.1964 27.8108 20.4362 28.5896 19.9564 29.5392C19.4765 30.4888 19.3003 31.5632 19.4518 32.6165C19.6032 33.6698 20.0748 34.6509 20.8027 35.4266C21.5305 36.2023 22.4793 36.7349 23.5201 36.9521L23.523 36.9527Z" fill="white"/>
<path d="M37.1778 44.4297C36.8779 44.367 36.5729 44.331 36.2666 44.322L38.0351 47.0207C38.4554 47.6771 38.6001 48.473 38.4377 49.2356C38.2753 49.9982 37.8189 50.6658 37.1676 51.0936C36.5164 51.5214 35.7228 51.6748 34.9592 51.5205C34.1957 51.3661 33.5237 50.9166 33.0893 50.2694L31.3209 47.5707C30.9241 48.5579 30.8404 49.6435 31.0814 50.68C31.3224 51.7164 31.8763 52.6535 32.6678 53.3639C33.4594 54.0743 34.4502 54.5237 35.5058 54.6508C36.5613 54.778 37.6304 54.5769 38.5678 54.0748C39.5052 53.5727 40.2654 52.794 40.7453 51.8444C41.2251 50.8948 41.4013 49.8204 41.2499 48.7671C41.0985 47.7138 40.6268 46.7326 39.8989 45.957C39.1711 45.1813 38.2223 44.6487 37.1815 44.4315L37.1778 44.4297Z" fill="white"/>
<path d="M36.6737 32.9988C36.9985 32.7855 37.3621 32.6384 37.7437 32.5657C38.1254 32.4931 38.5176 32.4964 38.8979 32.5754C39.2783 32.6545 39.6394 32.8078 39.9605 33.0265C40.2817 33.2452 40.5567 33.5251 40.7698 33.8502C40.9829 34.1754 41.13 34.5393 41.2025 34.9213C41.2751 35.3033 41.2718 35.6958 41.1928 36.0765C41.1138 36.4572 40.9607 36.8186 40.7422 37.1401C40.5236 37.4616 40.244 37.7369 39.9192 37.9502L37.222 39.72C38.2429 40.1293 39.3677 40.2019 40.4327 39.9273C41.4976 39.6526 42.4473 39.0452 43.1436 38.1931C43.8399 37.3411 44.2465 36.2889 44.3043 35.1897C44.362 34.0904 44.0679 33.0014 43.4647 32.081C42.8616 31.1605 41.9808 30.4567 40.9505 30.0718C39.9201 29.6869 38.794 29.641 37.7358 29.9408C36.6777 30.2406 35.7426 30.8705 35.0667 31.7388C34.3908 32.6071 34.0092 33.6686 33.9775 34.7689L36.6737 32.9988Z" fill="white"/>
<path d="M47.4442 17.3235L62.2373 16.9738L57.4617 30.9943C56.4399 28.3189 55.0627 25.7936 53.3677 23.486C51.6791 21.1763 49.6879 19.1043 47.4473 17.3261L47.4442 17.3235Z" fill="#24FF00"/>
</svg>
