<svg width="29" height="29" viewBox="0 0 29 29" fill="none" xmlns="http://www.w3.org/2000/svg">
<path d="M14.5 27.3205C21.6797 27.3205 27.5 21.5289 27.5 14.3845C27.5 7.24018 21.6797 1.44855 14.5 1.44855C7.3203 1.44855 1.5 7.24018 1.5 14.3845C1.5 21.5289 7.3203 27.3205 14.5 27.3205Z" stroke="white" stroke-width="1.4" stroke-linecap="square"/>
<path d="M14.58 27.4726C17.9333 24.3184 19.61 19.981 19.61 14.4606C19.61 8.94015 17.9333 4.6028 14.58 1.44855C11.2267 4.6028 9.54999 8.94015 9.54999 14.4606C9.54999 19.981 11.2267 24.3184 14.58 27.4726Z" stroke="white" stroke-width="1.4" stroke-linecap="round"/>
<path d="M2.12903 10.6841H27.023M2.12903 18.2361H27.023" stroke="white" stroke-width="1.4" stroke-linecap="round"/>
</svg>
