<svg width="26" height="27" viewBox="0 0 26 27" fill="none" xmlns="http://www.w3.org/2000/svg">
<path d="M13.001 11.1813C13.659 11.1813 14.3023 10.986 14.8494 10.6201C15.3965 10.2542 15.8229 9.73407 16.0748 9.12557C16.3266 8.51708 16.3925 7.84751 16.2641 7.20154C16.1357 6.55556 15.8188 5.9622 15.3535 5.49648C14.8883 5.03076 14.2954 4.7136 13.6501 4.58511C13.0047 4.45661 12.3357 4.52256 11.7278 4.77461C11.1199 5.02665 10.6003 5.45348 10.2347 6.00111C9.86914 6.54874 9.67401 7.19257 9.67401 7.8512C9.67401 8.73439 10.0245 9.58142 10.6485 10.2059C11.2724 10.8304 12.1186 11.1813 13.001 11.1813ZM13.001 5.74025C13.2829 5.72118 13.5656 5.76271 13.8301 5.86205C14.0946 5.9614 14.3348 6.11624 14.5346 6.3162C14.7344 6.51616 14.8891 6.75659 14.9883 7.02135C15.0876 7.28611 15.1291 7.56906 15.11 7.8512C15.11 8.41106 14.8878 8.948 14.4923 9.34388C14.0968 9.73976 13.5603 9.96216 13.001 9.96216C12.4417 9.96216 11.9052 9.73976 11.5097 9.34388C11.1142 8.948 10.892 8.41106 10.892 7.8512C10.8722 7.56866 10.9132 7.28516 11.0121 7.01979C11.111 6.75442 11.2656 6.51335 11.4654 6.31283C11.6653 6.11232 11.9058 5.95702 12.1706 5.85738C12.4355 5.75775 12.7187 5.7161 13.001 5.73524V5.74025Z" fill="white"/>
<path d="M25.979 24.939L23.813 14.096C23.764 13.8502 23.6314 13.6289 23.4378 13.47C23.2441 13.311 23.0014 13.2242 22.751 13.2242H18.539L18.75 12.8908L18.803 12.8078L19.414 11.8439C20.1772 10.6321 20.582 9.22887 20.5817 7.79644C20.5815 6.36401 20.176 4.96092 19.4124 3.74947C18.6487 2.53802 17.5581 1.5677 16.2665 0.95074C14.9749 0.333782 13.5353 0.0953948 12.114 0.263152C10.7965 0.417395 9.54256 0.915087 8.47747 1.70647C7.41239 2.49786 6.57349 3.55522 6.04466 4.77285C5.51583 5.99048 5.31557 7.32572 5.46392 8.6451C5.61227 9.96448 6.10402 11.2218 6.89002 12.2913C7.11802 12.6006 7.33802 12.9099 7.55402 13.2252H3.25402C3.0036 13.2252 2.76092 13.312 2.56729 13.471C2.37366 13.6299 2.24104 13.8512 2.19202 14.097L0.0220239 24.939C-0.0101775 25.0966 -0.00693357 25.2594 0.0315204 25.4156C0.0699744 25.5718 0.142674 25.7174 0.244348 25.842C0.346022 25.9666 0.47412 26.0669 0.619354 26.1358C0.764587 26.2047 0.923314 26.2403 1.08402 26.2402H24.917C25.0777 26.2403 25.2365 26.2047 25.3817 26.1358C25.5269 26.0669 25.655 25.9666 25.7567 25.842C25.8584 25.7174 25.9311 25.5718 25.9695 25.4156C26.008 25.2594 26.0112 25.0966 25.979 24.939ZM7.63902 7.02241C7.83543 5.66587 8.53786 4.43412 9.60496 3.57504C10.6721 2.71596 12.0246 2.2933 13.3905 2.39211C14.7564 2.49092 16.0342 3.10388 16.9668 4.10763C17.8994 5.11137 18.4176 6.43142 18.417 7.80213C18.4191 8.82278 18.1301 9.82283 17.584 10.6848L16.975 11.6447L16.922 11.7278C15.4944 13.8767 14.1851 16.102 13 18.3939C11.7638 15.8078 10.3035 13.3351 8.63602 11.0041C7.79272 9.86011 7.43444 8.42927 7.63902 7.02241ZM2.40602 24.0672L4.13902 15.3932H8.90002C9.70002 16.7454 10.475 18.2028 11.428 20.0975L11.586 20.4128L12.027 21.2956C12.1169 21.4759 12.2552 21.6275 12.4263 21.7334C12.5975 21.8394 12.7948 21.8955 12.996 21.8955C13.1973 21.8955 13.3946 21.8394 13.5657 21.7334C13.7369 21.6275 13.8751 21.4759 13.965 21.2956L14.9 19.4239C15.524 18.1767 16.232 16.9336 17.181 15.3882H21.859L23.6 24.0672H2.40602Z" fill="white"/>
</svg>
