<svg width="67" height="69" viewBox="0 0 67 69" fill="none" xmlns="http://www.w3.org/2000/svg">
<path d="M41.268 5.22842C27.5952 3.30506 14.9535 12.8401 13.0319 26.5255C11.1104 40.2109 20.6366 52.8644 34.3093 54.7877C47.982 56.7111 60.6237 47.176 62.5453 33.4906C64.4669 19.8052 54.9407 7.15178 41.268 5.22842Z" fill="#D90915"/>
<path d="M37.717 29.0439C37.572 29.0235 37.4243 29.0466 37.2925 29.1102C37.1607 29.1739 37.0507 29.2752 36.9764 29.4014C36.9021 29.5277 36.8669 29.6731 36.8752 29.8194C36.8835 29.9656 36.9349 30.1061 37.023 30.2231C37.1111 30.3401 37.2318 30.4283 37.37 30.4766C37.5082 30.5249 37.6576 30.5311 37.7993 30.4945C37.941 30.4578 38.0686 30.3799 38.1661 30.2706C38.2635 30.1613 38.3264 30.0255 38.3468 29.8804C38.3741 29.6859 38.3231 29.4885 38.205 29.3316C38.0869 29.1747 37.9113 29.0712 37.717 29.0439Z" fill="white"/>
<path d="M42.1511 38.2642C42.268 38.4195 42.4143 38.5502 42.5817 38.6489C42.7491 38.7475 42.9342 38.8123 43.1266 38.8393C43.319 38.8664 43.5148 38.8553 43.7029 38.8066C43.8909 38.7579 44.0676 38.6726 44.2227 38.5556C44.3779 38.4386 44.5085 38.2921 44.6071 38.1246C44.7057 37.957 44.7703 37.7717 44.7974 37.5792C44.8244 37.3866 44.8133 37.1906 44.7646 37.0024C44.716 36.8141 44.6308 36.6373 44.5139 36.482L42.3555 33.6151C41.6475 32.6743 41.3418 31.4906 41.5056 30.3243C41.6693 29.1579 42.2892 28.1044 43.2288 27.3954L46.0931 25.235C46.2482 25.118 46.3788 24.9716 46.4774 24.804C46.576 24.6365 46.6407 24.4512 46.6677 24.2586C46.6947 24.0661 46.6836 23.8701 46.635 23.6818C46.5863 23.4936 46.5011 23.3168 46.3842 23.1615C46.2673 23.0062 46.121 22.8755 45.9536 22.7768C45.7862 22.6781 45.6011 22.6134 45.4087 22.5863C45.2163 22.5593 45.0205 22.5704 44.8324 22.6191C44.6444 22.6678 44.4677 22.753 44.3126 22.8701L41.4483 25.0304C40.5084 25.7391 39.3258 26.0451 38.1605 25.8811C36.9953 25.7172 35.9427 25.0968 35.2344 24.1563L33.076 21.2894C32.8399 20.9758 32.489 20.7689 32.1005 20.7142C31.712 20.6596 31.3177 20.7617 31.0044 20.998C30.691 21.2343 30.4843 21.5855 30.4297 21.9744C30.3751 22.3633 30.4771 22.7579 30.7132 23.0715L32.8716 25.9385C33.5796 26.8792 33.8853 28.0629 33.7215 29.2293C33.5577 30.3956 32.9379 31.4491 31.9983 32.1581L29.134 34.3185C28.9789 34.4355 28.8483 34.582 28.7497 34.7495C28.6511 34.9171 28.5864 35.1024 28.5594 35.295C28.5324 35.4875 28.5435 35.6835 28.5921 35.8717C28.6408 36.06 28.726 36.2368 28.8429 36.3921C28.9598 36.5474 29.1061 36.6781 29.2735 36.7768C29.4409 36.8755 29.626 36.9402 29.8184 36.9672C30.0108 36.9943 30.2066 36.9832 30.3946 36.9345C30.5827 36.8858 30.7594 36.8005 30.9145 36.6835L33.7788 34.5231C34.7187 33.8145 35.9013 33.5085 37.0666 33.6724C38.2318 33.8363 39.2843 34.4568 39.9927 35.3973L42.1511 38.2642ZM37.3053 31.9758C36.8707 31.9147 36.4639 31.7259 36.1365 31.4334C35.8091 31.1409 35.5757 30.7578 35.4658 30.3325C35.3559 29.9072 35.3745 29.4588 35.5192 29.0441C35.6639 28.6294 35.9282 28.2669 36.2787 28.0025C36.6292 27.7382 37.0501 27.5838 37.4883 27.5589C37.9265 27.534 38.3622 27.6397 38.7403 27.8626C39.1185 28.0856 39.4221 28.4158 39.6128 28.8114C39.8034 29.2071 39.8726 29.6505 39.8115 30.0855C39.7291 30.6687 39.4187 31.1954 38.9486 31.5498C38.4785 31.9042 37.8881 32.0575 37.3053 31.9758Z" fill="white"/>
<path d="M43.4212 21.6884C44.0477 21.2157 44.8362 21.0115 45.6131 21.1207C46.39 21.2299 47.0918 21.6436 47.5641 22.2707C48.0363 22.8978 48.2403 23.6869 48.1312 24.4646C48.0221 25.2423 47.6088 25.9447 46.9823 26.4174L44.4072 28.3597C45.4526 28.7014 46.5797 28.7004 47.6245 28.3569C48.6693 28.0134 49.5774 27.3452 50.2167 26.4495C50.856 25.5538 51.1932 24.4774 51.1792 23.3767C51.1652 22.276 50.8008 21.2085 50.139 20.3294C49.4771 19.4503 48.5524 18.8054 47.4992 18.4886C46.4459 18.1717 45.3192 18.1995 44.2828 18.5677C43.2464 18.9359 42.3544 19.6255 41.7365 20.5361C41.1186 21.4466 40.807 22.5308 40.847 23.6308L43.4212 21.6884Z" fill="white"/>
<path d="M44.6699 33.0623C44.3665 33.0193 44.0599 33.0032 43.7537 33.0143L45.6943 35.5908C46.1665 36.2179 46.3705 37.0071 46.2614 37.7848C46.1523 38.5624 45.7391 39.2648 45.1125 39.7375C44.486 40.2102 43.6976 40.4144 42.9206 40.3052C42.1437 40.196 41.4419 39.7823 40.9697 39.1552L39.0292 36.5777C38.6975 37.5888 38.6848 38.6775 38.9928 39.696C39.3008 40.7145 39.9145 41.6135 40.7507 42.2707C41.5868 42.928 42.6048 43.3117 43.6664 43.3697C44.728 43.4277 45.7817 43.1573 46.6844 42.5951C47.5871 42.0329 48.295 41.2061 48.7119 40.2273C49.1289 39.2484 49.2347 38.1647 49.015 37.1236C48.7953 36.0824 48.2607 35.1341 47.4839 34.4076C46.707 33.6811 45.7256 33.2115 44.6729 33.0627L44.6699 33.0623Z" fill="white"/>
<path d="M30.5571 26.4922C30.8605 26.5352 31.1671 26.5513 31.4733 26.5402L29.5328 23.9627C29.0706 23.3351 28.8744 22.5503 28.9868 21.7788C29.0992 21.0073 29.5111 20.3112 30.1331 19.8418C30.7551 19.3725 31.537 19.1676 32.309 19.2718C33.081 19.3759 33.7808 19.7807 34.2564 20.3982L36.1969 22.9757C36.5286 21.9646 36.5413 20.8759 36.2333 19.8574C35.9253 18.8389 35.3116 17.9399 34.4754 17.2827C33.6393 16.6254 32.6213 16.2417 31.5597 16.1837C30.4981 16.1257 29.4444 16.3961 28.5417 16.9583C27.639 17.5206 26.9311 18.3473 26.5142 19.3262C26.0972 20.305 25.9914 21.3887 26.2111 22.4299C26.4308 23.471 26.9654 24.4193 27.7423 25.1458C28.5191 25.8723 29.5005 26.3419 30.5533 26.4907L30.5571 26.4922Z" fill="white"/>
<path d="M31.8048 37.866C31.4945 38.1 31.1413 38.2706 30.7652 38.368C30.3891 38.4654 29.9976 38.4877 29.6129 38.4336C29.2282 38.3796 28.8579 38.2502 28.5231 38.0529C28.1884 37.8556 27.8957 37.5942 27.6619 37.2837C27.4281 36.9732 27.2576 36.6196 27.1603 36.2432C27.063 35.8667 27.0407 35.4748 27.0948 35.0897C27.1488 34.7047 27.278 34.3341 27.4752 33.999C27.6723 33.664 27.9334 33.371 28.2436 33.137L30.8198 31.1948C29.7743 30.8531 28.6473 30.8541 27.6025 31.1976C26.5576 31.5411 25.6495 32.2093 25.0102 33.105C24.3709 34.0006 24.0338 35.0771 24.0477 36.1778C24.0617 37.2785 24.4261 38.346 25.088 39.2251C25.7498 40.1042 26.6746 40.7491 27.7278 41.0659C28.781 41.3828 29.9077 41.3551 30.9441 40.9868C31.9805 40.6186 32.8725 39.929 33.4904 39.0185C34.1083 38.1079 34.4199 37.0237 34.3799 35.9237L31.8048 37.866Z" fill="white"/>
<path d="M22.0784 54.2109L7.33949 55.5253L11.1916 41.2229C12.3855 43.8259 13.9242 46.256 15.766 48.4481C17.6015 50.6427 19.7234 52.5802 22.0751 54.2084L22.0784 54.2109Z" fill="#D90915"/>
</svg>
